<svg width="768" height="504" viewBox="0 0 768 504" fill="none" xmlns="http://www.w3.org/2000/svg">
<g clip-path="url(#clip0_488_164)">
<g clip-path="url(#clip1_488_164)">
<line x1="0.5" y1="-264" x2="0.5" y2="504" stroke="#1F2937"/>
<line x1="48.5" y1="-264" x2="48.5" y2="504" stroke="#1F2937"/>
<line x1="96.5" y1="-264" x2="96.5" y2="504" stroke="#1F2937"/>
<line x1="144.5" y1="-264" x2="144.5" y2="504" stroke="#1F2937"/>
<line x1="192.5" y1="-264" x2="192.5" y2="504" stroke="#1F2937"/>
<line x1="240.5" y1="-264" x2="240.5" y2="504" stroke="#1F2937"/>
<line x1="288.5" y1="-264" x2="288.5" y2="504" stroke="#1F2937"/>
<line x1="336.5" y1="-264" x2="336.5" y2="504" stroke="#1F2937"/>
<line x1="384.5" y1="-264" x2="384.5" y2="504" stroke="#1F2937"/>
<line x1="432.5" y1="-264" x2="432.5" y2="504" stroke="#1F2937"/>
<line x1="480.5" y1="-264" x2="480.5" y2="504" stroke="#1F2937"/>
<line x1="528.5" y1="-264" x2="528.5" y2="504" stroke="#1F2937"/>
<line x1="576.5" y1="-264" x2="576.5" y2="504" stroke="#1F2937"/>
<line x1="624.5" y1="-264" x2="624.5" y2="504" stroke="#1F2937"/>
<line x1="672.5" y1="-264" x2="672.5" y2="504" stroke="#1F2937"/>
<line x1="720.5" y1="-264" x2="720.5" y2="504" stroke="#1F2937"/>
</g>
<g clip-path="url(#clip2_488_164)">
<line y1="23.5" x2="768" y2="23.5" stroke="#1F2937"/>
<line y1="71.5" x2="768" y2="71.5" stroke="#1F2937"/>
<line y1="119.5" x2="768" y2="119.5" stroke="#1F2937"/>
<line y1="167.5" x2="768" y2="167.5" stroke="#1F2937"/>
<line y1="215.5" x2="768" y2="215.5" stroke="#1F2937"/>
<line y1="263.5" x2="768" y2="263.5" stroke="#1F2937"/>
<line y1="311.5" x2="768" y2="311.5" stroke="#1F2937"/>
<line y1="359.5" x2="768" y2="359.5" stroke="#1F2937"/>
<line y1="407.5" x2="768" y2="407.5" stroke="#1F2937"/>
<line y1="455.5" x2="768" y2="455.5" stroke="#1F2937"/>
<line y1="503.5" x2="768" y2="503.5" stroke="#1F2937"/>
</g>
</g>
<defs>
<clipPath id="clip0_488_164">
<rect width="768" height="768" fill="white" transform="translate(0 -264)"/>
</clipPath>
<clipPath id="clip1_488_164">
<rect width="768" height="768" fill="white" transform="translate(0 -264)"/>
</clipPath>
<clipPath id="clip2_488_164">
<rect width="768" height="768" fill="white" transform="translate(0 -264)"/>
</clipPath>
</defs>
</svg>
