<svg width="48" height="48" viewBox="0 0 48 48" fill="none" xmlns="http://www.w3.org/2000/svg">
<rect width="48" height="48" rx="10.2857" fill="#1D4ED8"/>
<path d="M34.504 11.7229L41.3289 10.3847C41.3707 10.3766 41.3657 10.3152 41.3231 10.3139L34.4982 10.1082C34.478 10.1076 34.4613 10.1238 34.4613 10.1439V11.6878C34.4613 11.7103 34.4819 11.7273 34.504 11.7229Z" fill="white"/>
<path d="M34.0241 9.18818V11.8789C34.0241 11.8888 34.02 11.8982 34.0128 11.905L30.911 14.8146C30.8915 14.8329 30.8596 14.8241 30.8522 14.7984L29.1131 8.74934C29.1072 8.72879 29.1205 8.70769 29.1416 8.70419L31.8704 8.25168C31.8772 8.25056 31.8841 8.25139 31.8903 8.25406L34.0024 9.1553C34.0156 9.16092 34.0241 9.17386 34.0241 9.18818Z" fill="white"/>
<path d="M30.8804 15.4093L33.2075 13.1183C33.2339 13.0922 33.2777 13.1188 33.2667 13.1543L32.2286 16.5214C32.226 16.5297 32.2206 16.5368 32.2132 16.5413L25.5312 20.6578C25.5029 20.6752 25.4682 20.648 25.4784 20.6164L27.2669 15.0703C27.272 15.0542 27.2878 15.0439 27.3046 15.0457L30.8516 15.4193C30.8622 15.4205 30.8728 15.4168 30.8804 15.4093Z" fill="white"/>
<path d="M30.4825 15.0369L27.3396 14.7025C27.3117 14.6996 27.2979 14.6672 27.3151 14.6451L28.2749 13.4092C28.2792 13.4036 28.2818 13.3969 28.2823 13.3899L28.603 8.97728C28.6059 8.93782 28.6613 8.93157 28.6729 8.96939L30.5205 14.9909C30.528 15.0154 30.508 15.0396 30.4825 15.0369Z" fill="white"/>
<path d="M25.4775 21.1564L32.0752 17.2993C32.0981 17.286 32.127 17.3013 32.1289 17.3277L32.434 21.6806C32.4346 21.69 32.4316 21.6992 32.4255 21.7063L28.2128 26.6292C28.1961 26.6487 28.165 26.6448 28.1536 26.6219L25.4635 21.2031C25.4551 21.1863 25.4612 21.1659 25.4775 21.1564Z" fill="white"/>
<path d="M20.5691 28.5033L27.7807 26.9724C27.8038 26.9675 27.8158 26.942 27.8051 26.9211L24.8844 21.2307C24.8715 21.2057 24.8362 21.2046 24.8218 21.2288L20.5309 28.4501C20.515 28.4769 20.5386 28.5098 20.5691 28.5033Z" fill="white"/>
<path d="M24.9853 32.0058V27.9722C24.9853 27.9493 24.964 27.9323 24.9416 27.9374L20.3921 28.9692C20.3614 28.9762 20.354 29.0166 20.3803 29.0339L24.9298 32.0357C24.9536 32.0513 24.9853 32.0343 24.9853 32.0058Z" fill="white"/>
<path d="M25.7408 32.8936L20.2203 29.5031C20.1964 29.4885 20.1658 29.5057 20.1658 29.5336V32.0617C20.1658 32.0686 20.1678 32.0753 20.1715 32.0811L23.7525 37.6175C23.7554 37.622 23.7593 37.6258 23.7638 37.6286L26.7329 39.4455C26.7589 39.4614 26.7917 39.4395 26.7869 39.4094L25.7574 32.9185C25.7558 32.9081 25.7497 32.8991 25.7408 32.8936Z" fill="white"/>
<path d="M24.0149 21.1732H19.7999C19.7791 21.1732 19.7627 21.191 19.7643 21.2118L20.3008 28.0587C20.3036 28.0943 20.3511 28.1043 20.368 28.0729L24.0464 21.2259C24.0592 21.2021 24.042 21.1732 24.0149 21.1732Z" fill="white"/>
<path d="M17.1111 20.7086H24.3273C24.3496 20.7086 24.3664 20.6886 24.3625 20.6667L23.2091 14.1319C23.2062 14.1154 23.1922 14.1031 23.1754 14.1024L6.87142 13.4058C6.83579 13.4043 6.82015 13.4502 6.84928 13.4708L17.0904 20.7021C17.0965 20.7063 17.1037 20.7086 17.1111 20.7086Z" fill="white"/>
<path d="M26.2676 13.0715L28.2876 9.42707C28.3069 9.39231 28.36 9.41022 28.3543 9.44955L27.8307 13.042C27.8283 13.0591 27.8139 13.0719 27.7966 13.0725L26.3001 13.1246C26.2723 13.1256 26.2541 13.0958 26.2676 13.0715Z" fill="white"/>
<path d="M26.9186 14.6735L27.7845 13.4594C27.8017 13.4353 27.7838 13.402 27.7543 13.4029L23.9474 13.524C23.9082 13.5252 23.8993 13.5795 23.9361 13.5932L26.877 14.6862C26.8922 14.6918 26.9092 14.6866 26.9186 14.6735Z" fill="white"/>
<path d="M26.6086 15.1584L23.8248 14.1257C23.7987 14.116 23.772 14.1385 23.7772 14.1659L24.9585 20.3713C24.9654 20.4078 25.0167 20.4107 25.0277 20.3751L26.6303 15.2025C26.6359 15.1844 26.6264 15.165 26.6086 15.1584Z" fill="white"/>
</svg>
