<svg width="20" height="20" viewBox="0 0 20 20" fill="none" xmlns="http://www.w3.org/2000/svg">
<path fill-rule="evenodd" clip-rule="evenodd" d="M0.666748 1.84508C0.666748 1.19292 1.18358 0.666748 1.84508 0.666748H4.15508C4.80725 0.666748 5.33342 1.18358 5.33342 1.84508V4.15508C5.33342 4.80725 4.81658 5.33342 4.15508 5.33342H1.84508C1.19292 5.33342 0.666748 4.81658 0.666748 4.15508V1.84508ZM0.666748 8.84508C0.666748 8.19408 1.18358 7.66675 1.84508 7.66675H4.15508C4.80608 7.66675 5.33342 8.18358 5.33342 8.84508V11.1551C5.33342 11.8072 4.81658 12.3334 4.15508 12.3334H1.84508C1.19292 12.3334 0.666748 11.8166 0.666748 11.1551V8.84508ZM7.66675 1.84508C7.66675 1.19408 8.18358 0.666748 8.84508 0.666748H11.1551C11.8061 0.666748 12.3334 1.18358 12.3334 1.84508V4.15508C12.3334 4.80725 11.8166 5.33342 11.1551 5.33342H8.84508C8.19292 5.33342 7.66675 4.81658 7.66675 4.15508V1.84508ZM7.66675 8.84508C7.66675 8.19408 8.18358 7.66675 8.84508 7.66675H11.1551C11.8061 7.66675 12.3334 8.18358 12.3334 8.84508V11.1551C12.3334 11.8061 11.8166 12.3334 11.1551 12.3334H8.84508C8.19408 12.3334 7.66675 11.8166 7.66675 11.1551V8.84508ZM14.6667 1.84508C14.6667 1.19408 15.1836 0.666748 15.8451 0.666748H18.1551C18.8061 0.666748 19.3334 1.18358 19.3334 1.84508V4.15508C19.3334 4.80725 18.8166 5.33342 18.1551 5.33342H15.8451C15.1929 5.33342 14.6667 4.81658 14.6667 4.15508V1.84508ZM14.6667 8.84508C14.6667 8.19408 15.1836 7.66675 15.8451 7.66675H18.1551C18.8061 7.66675 19.3334 8.18358 19.3334 8.84508V11.1551C19.3334 11.8061 18.8166 12.3334 18.1551 12.3334H15.8451C15.1941 12.3334 14.6667 11.8166 14.6667 11.1551V8.84508ZM0.666748 15.8451C0.666748 15.1941 1.18358 14.6667 1.84508 14.6667H4.15508C4.80608 14.6667 5.33342 15.1836 5.33342 15.8451V18.1551C5.33342 18.8072 4.81658 19.3334 4.15508 19.3334H1.84508C1.19292 19.3334 0.666748 18.8166 0.666748 18.1551V15.8451ZM7.66675 15.8451C7.66675 15.1941 8.18358 14.6667 8.84508 14.6667H11.1551C11.8061 14.6667 12.3334 15.1836 12.3334 15.8451V18.1551C12.3334 18.8061 11.8166 19.3334 11.1551 19.3334H8.84508C8.19408 19.3334 7.66675 18.8166 7.66675 18.1551V15.8451ZM14.6667 15.8451C14.6667 15.1941 15.1836 14.6667 15.8451 14.6667H18.1551C18.8061 14.6667 19.3334 15.1836 19.3334 15.8451V18.1551C19.3334 18.8061 18.8166 19.3334 18.1551 19.3334H15.8451C15.1941 19.3334 14.6667 18.8166 14.6667 18.1551V15.8451Z" fill="#4B5563"/>
</svg>
